<?xml version="1.0" encoding="utf-8"?>
<!-- Generator: Adobe Illustrator 27.5.0, SVG Export Plug-In . SVG Version: 6.00 Build 0)  -->
<svg version="1.1" id="Layer_1" xmlns="http://www.w3.org/2000/svg" xmlns:xlink="http://www.w3.org/1999/xlink" x="0px" y="0px"
	 viewBox="0 0 497.129 414.212" style="enable-background:new 0 0 497.129 414.212;" xml:space="preserve">
<g>
	<path style="fill:#717375;" d="M388.678,115.908c-1.251-14.598-59.644-17.101-59.644-17.101l-56.447-3.901
		c-22.709-5.532-47.852-8.611-74.311-8.611c-10.336,0-20.468,0.477-30.336,1.378L45.412,79.204L8.291,111.32
		c0,0-1.577,40.252,7.549,83.139c7.409,51.621,86.255,92.246,182.436,92.246c99.131,0,179.843-43.157,182.909-97.029
		C382.985,177.139,389.765,128.589,388.678,115.908z"/>
	<path style="opacity:0.5;fill:#656769;" d="M388.678,115.908c-1.251-14.598-59.644-17.101-59.644-17.101l-56.447-3.901
		c-22.709-5.532-47.852-8.611-74.311-8.611c-10.336,0-20.468,0.477-30.336,1.378L45.412,79.204L8.291,111.32
		c0,0-0.032,0.816-0.06,2.335c3.065,18.705,9.165,36.787,20.782,52.13c7.86,10.381,17.812,19.077,28.501,26.444
		c10.825,7.461,22.559,13.557,34.717,18.533c12.212,4.998,24.86,8.895,37.689,11.956c13.838,3.302,27.93,5.868,42.1,7.18
		c15.28,1.414,30.841,1.759,46.135,0.412c7.47-0.658,14.949-1.479,22.455-0.98c4.472,0.297,8.711,1.723,11.912,4.969
		c6.375,6.466,7.264,16.774,8.079,25.331c0.665,6.978,0.736,13.993,0.5,21.008c68.398-13.69,117.701-49.087,120.084-90.962
		C382.985,177.139,389.765,128.589,388.678,115.908z"/>
	<ellipse style="fill:#9FA1A4;" cx="198.276" cy="110.694" rx="190.819" ry="104.481"/>
	<ellipse style="fill:#717375;" cx="197.907" cy="109.838" rx="185.027" ry="98.598"/>
	<ellipse style="fill:#515355;" cx="197.907" cy="109.838" rx="185.027" ry="98.598"/>
	<g>
		<path style="fill:#404244;" d="M197.907,208.435c70.947,0,132.557-21.282,163.603-52.517
			c-24.377-36.017-88.425-61.729-163.603-61.729c-75.177,0-139.226,25.711-163.603,61.729
			C65.35,187.153,126.96,208.435,197.907,208.435z"/>
	</g>
	<path style="fill:#717375;" d="M79.003,58.603c0.739-0.268,1.48-0.53,2.224-0.785c3.279-1.124,7.253-2.005,9.928,0.199
		c1.363,1.123,2.074,2.836,2.677,4.496c2.281,6.277,3.757,12.846,4.381,19.496c0.212,2.257,0.318,4.585-0.388,6.739
		c-1.492,4.552-6.103,7.174-10.216,9.628c-10.763,6.421-20.526,14.517-28.828,23.906c4.764,1.391,9.653-1.311,13.956-3.782
		c42.273-24.276,91.986-35.384,140.571-31.411c1.798,0.147,4.489-1.059,3.442-2.529c-0.167-0.234-0.412-0.4-0.654-0.556
		c-8.087-5.228-18.09-6.259-27.666-7.285c-9.575-1.025-19.606-2.359-27.392-8.027c-7.786-5.667-12.221-17.137-7.018-25.24
		c3.39-5.28,9.749-7.748,15.795-9.429c13.103-3.642,26.8-5.137,40.379-4.407c7.497,0.403,15.51,1.372,22.084-2.253
		c-6.5-5.047-15.084-6.354-23.277-7.128c-52.499-4.958-115.017,2.227-155.904,38.567c-4.373,3.886-14.417,11.23-14.159,17.87
		c0.025,0.654,0.177,1.333,0.604,1.828c3.252,3.779,17.187-9.389,19.853-10.89C65.671,64.078,72.235,61.06,79.003,58.603z"/>
	<g>
		<path style="fill:#404244;" d="M333.413,198.283c0,0-27.528,15.328-49.112,20.959c-18.132,4.73-15.955,26.899-7.377,36.466
			c1.633,1.822,7.409,6.158,9.41,6.859c12.513,4.379,58.341-23.461,65.223-37.851c4.733-9.897,0.73-19.529-5.318-24.087
			C343.493,198.56,336.734,197.209,333.413,198.283z"/>
		<path style="fill:#656769;" d="M338.106,201.412c0,0-27.528,15.328-49.112,20.959c-21.584,5.631-14.39,35.974-1.877,40.354
			c12.513,4.379,58.184-20.02,65.066-34.41C359.064,213.924,348.741,197.971,338.106,201.412z"/>
		<path style="fill:#656769;" d="M275.405,244.019c0.291-3.54,1.095-7.106,2.713-10.287c1.669-3.281,4.332-5.864,7.503-7.695
			c3.236-1.868,6.841-2.992,10.409-4.034c9.144-2.672,18.26-5.708,27.03-9.44c1.66-0.706,3.322-1.416,4.918-2.258
			c1.219-0.643,2.417-1.326,3.619-2.002c2.755-1.549,5.529-3.081,8.444-4.313c1.801-0.761,3.797-1.442,5.806-1.798
			c-2.378-1.274-5.049-1.65-7.741-0.779c0,0-27.528,15.328-49.113,20.959c-11.278,2.942-14.689,12.63-13.6,21.836
			C275.398,244.144,275.4,244.081,275.405,244.019z"/>
		<path style="opacity:0.5;fill:#656769;" d="M346.565,215.987c-2.7,2.242-5.205,5.211-6.051,8.691
			c-0.056,0.231-0.32,0.375-0.545,0.31c-0.925-0.269-1.722-0.76-2.446-1.388c-0.748-0.65-1.397-1.405-2.144-2.055
			c-0.794-0.691-1.703-1.289-2.614-1.813c-1.986-1.141-4.179-1.914-6.429-2.336c-4.12-0.774-8.416-0.175-12.322,1.27
			c-3.948,1.46-7.598,3.797-10.607,6.737c-2.721,2.658-4.768,5.792-6.169,9.322c-1.088,2.742-1.913,5.589-3.17,8.263
			c-1.102,2.344-2.648,4.712-5.078,5.837c-2.83,1.31-6.356,0.767-9.066-0.597c-2.112-1.063-3.671-2.833-4.629-4.935
			c0.745,8.741,5.628,17.265,11.819,19.432c12.513,4.379,58.184-20.02,65.066-34.41c2.665-5.573,2.743-11.376,1.228-16.201
			C350.902,212.927,348.552,214.337,346.565,215.987z"/>
		<g>
			<path style="fill:#A2B2B2;" d="M387.665,275.744l-50.809-49.134c0,0-0.024,0.095-0.067,0.26c-2.467-3.147-5.911-5.576-10.05-6.76
				c-10.436-2.985-21.316,3.054-24.301,13.49c-2.175,7.604,0.444,15.439,6.061,20.289l53.594,55.579L387.665,275.744z"/>
			<path style="fill:#A2B2B2;" d="M355.266,257.077c-2.021,0.785-3.934,2.042-6.076,2.486c-4.35,0.902-8.555-1.729-11.774-4.349
				c-1.75-1.425-3.371-2.998-4.988-4.569c-1.673-1.625-3.391-3.197-5.129-4.752c-3.76-3.362-7.632-6.756-10.487-10.956
				c-1.142-1.68-2.393-3.682-1.716-5.79c0.557-1.735,2.063-2.993,3.497-4.083c-1.066-0.427-2.214-0.458-3.346-0.133
				c-2.665,0.767-4.844,2.933-6.561,5.015c-0.956,1.16-1.884,2.433-2.642,3.783c-0.605,2.133-0.498,4.384,0.911,6.221
				c0.574-0.594,1.135-1.201,1.717-1.788c0.396-0.4,0.823-0.819,1.346-1.048c1.237-0.542,2.358,0.53,3.177,1.332
				c1.723,1.687,3.318,3.523,4.938,5.307c1.683,1.853,3.348,3.722,5.007,5.596c1.716,1.938,3.425,3.882,5.141,5.82
				c1.628,1.839,3.224,3.726,4.929,5.493c2.547,2.64,5.901,4.938,7.408,8.4c0.84,1.929,0.604,4.067,0.394,6.101
				c-0.226,2.183-0.315,4.323,0.604,6.318c0.42-0.705,0.598-1.564,0.758-2.35c0.214-1.053,0.376-2.115,0.754-3.126
				c0.826-2.206,1.993-4.268,3.309-6.216c1.303-1.93,2.705-3.874,4.372-5.508c2.941-2.883,6.661-4.706,10.027-7.017
				C359.207,255.97,357.153,256.345,355.266,257.077z"/>
			<path style="fill:#A2B2B2;" d="M369.437,258.117c-6.245,1.283-12.323,3.938-17.249,8.002c-5.078,4.19-8.802,9.971-9.417,16.626
				c-0.028,0.308-0.363,0.587-0.667,0.383c-2.567-1.727-4.772-3.919-6.888-6.161c-2.254-2.389-4.514-4.77-6.77-7.157
				c-4.22-4.465-8.28-9.063-12.319-13.691c-3.26-3.735-6.807-7.31-9.327-11.617c-1.184-2.024-2.183-4.276-2.471-6.623
				c-0.257-2.094,0.092-4.252,0.68-6.264c0.8-2.738,2.122-5.55,3.958-7.88c-3.035,2.453-5.374,5.828-6.529,9.865
				c-2.175,7.604,0.444,15.439,6.061,20.289l53.594,55.579l25.572-33.724L369.437,258.117z"/>
			
				<ellipse transform="matrix(0.5 -0.866 0.866 0.5 -65.9317 470.8546)" style="fill:#7F5632;" cx="374.806" cy="292.526" rx="21.323" ry="16.592"/>
		</g>
		<g>
			<path style="fill:#BA7D4E;" d="M481.687,349.262l-80.593-77.936c0,0-9.481-8.433-16.047-10.311
				c-16.553-4.736-33.811,4.845-38.546,21.398c-3.45,12.061,0.705,24.49,9.613,32.182l85.01,88.159L481.687,349.262z"/>
			<g style="opacity:0.51;">
				<path style="fill:#BA7D4E;" d="M352.969,305.678c0.132-2.456,0.592-5.009,1.959-7.1c0.158-0.242,0.481-0.293,0.696-0.09
					c1.281,1.212,1.96,2.976,2.493,4.618c1.143,3.52,1.622,7.207,2.771,10.727c0.909,2.786,1.968,5.522,2.96,8.279
					c-0.427-1.586-0.861-3.171-1.294-4.756c-0.788-2.89-1.613-5.793-2.2-8.733c-0.345-1.729-0.582-3.48-0.894-5.216
					c-0.365-2.031-0.778-4.076-1.465-6.026c-0.425-1.208-1.03-2.763-2.205-3.459c-1.094,0.947-1.872,2.19-2.397,3.534
					c-1.187,3.036-1.421,6.411-1.396,9.641c0.009,1.113,0.064,2.226,0.143,3.338c0.348,0.436,0.71,0.861,1.08,1.28
					C352.988,309.713,352.86,307.695,352.969,305.678z"/>
				<path style="fill:#BA7D4E;" d="M392.019,348.135c-4.79-10.29-9.013-20.831-13.29-31.341c-2.163-5.314-4.339-10.624-6.613-15.892
					c-1.73-4.008-3.446-8.043-5.514-11.891c-1.665-3.099-3.652-6.548-6.632-8.564c-1.218-0.824-2.672-1.354-4.152-1.046
					c-1.822,0.379-3.306,1.763-4.438,3.17c-2.682,3.333-3.817,7.799-4.289,11.972c-0.226,1.992-0.314,4.018-0.25,6.039
					c0.165,0.506,0.339,1.01,0.529,1.506c0.43-3.187,1.117-6.34,1.677-9.512c0.326-1.849,0.688-3.709,1.324-5.481
					c0.576-1.604,1.389-3.232,2.812-4.244c5.465-3.888,9.67,5.084,11.345,8.883c1.398,3.173,2.643,6.42,3.944,9.634
					c1.966,4.856,3.941,9.71,5.972,14.54c4.043,9.619,8.312,19.154,13.155,28.401c1.187,2.267,2.412,4.515,3.672,6.743l4.334,4.495
					C394.372,353.095,393.177,350.623,392.019,348.135z"/>
				<path style="fill:#BA7D4E;" d="M468.332,355.25c-2.001-5.117-3.829-10.318-6.068-15.338c-3.021-6.773-6.701-13.199-10.481-19.57
					l-9.005-8.708c0.473,0.749,0.948,1.495,1.417,2.246c3.405,5.444,6.71,10.958,9.645,16.671
					c2.654,5.164,4.749,10.591,6.808,16.013c2.514,6.62,4.964,13.372,8.111,19.746l2.678-3.532
					C470.341,360.295,469.32,357.777,468.332,355.25z"/>
				<path style="fill:#BA7D4E;" d="M408.469,281.263c-0.919-1.831-1.988-3.582-3.059-5.327c-0.209-0.34-0.409-0.686-0.612-1.03
					l-1.345-1.301c1.787,2.838,3.473,5.916,4.005,9.229c0.046,0.29-0.116,0.548-0.427,0.561c-2.273,0.094-4.486-1.355-6.27-2.601
					c-1.837-1.282-3.539-2.739-5.264-4.164c-2.116-1.749-4.212-3.498-6.197-5.398c-3.694-3.537-7.083-7.37-10.354-11.298
					c-0.989-0.077-1.975-0.123-2.955-0.105c3.632,4.677,8.365,8.409,12.946,12.118c4.742,3.84,8.883,8.34,13.474,12.35
					c1.37,1.197,2.822,2.417,4.49,3.176c0.629,0.287,1.453,0.588,2.141,0.335c0.618-0.227,0.954-0.911,0.999-1.536
					C410.165,284.567,409.208,282.737,408.469,281.263z"/>
				<path style="fill:#BA7D4E;" d="M449.766,335.672c-0.81-2.037-1.859-3.966-2.744-5.969c-2.361-5.344-5.124-10.515-8.255-15.447
					c-3.231-5.091-6.845-9.949-10.311-14.881c-0.732-1.04-1.466-2.079-2.201-3.118c2.175,3.843,4.507,7.592,6.73,11.408
					c1.155,1.982,2.281,3.982,3.353,6.01c0.998,1.889,1.895,3.82,2.828,5.74c0.798,1.643,1.687,3.24,2.403,4.922
					c0.657,1.545,1.232,3.211,1.148,4.914c-0.018,0.361-0.357,0.518-0.667,0.383c-0.6-0.261-1.18-0.563-1.74-0.901
					c-4.952-2.994-8.412-7.973-12.178-12.239c-4.717-5.344-9.634-10.509-14.642-15.581c-5.148-5.214-10.304-10.418-15.433-15.652
					c-5.045-5.148-10.208-10.16-15.84-14.669c-0.397-0.318-0.804-0.625-1.204-0.94c1.095,1.071,2.169,2.16,3.223,3.262
					c5.953,6.219,11.377,12.912,17.166,19.279c3.466,3.812,7.115,7.462,10.706,11.155c3.778,3.886,7.558,7.769,11.305,11.685
					c1.905,1.991,3.801,3.99,5.683,6.001c1.338,1.429,2.716,2.834,3.982,4.329c1.775,2.095,3.419,4.3,5.162,6.422
					c2.063,2.513,4.204,5.011,6.663,7.15c0.986,0.857,2.038,1.667,3.21,2.256c0.783,0.393,1.69,0.706,2.577,0.595
					C451.351,339.816,450.49,337.493,449.766,335.672z"/>
				<path style="fill:#BA7D4E;" d="M447.469,361.382c-3.926-3.683-7.706-7.53-11.183-11.642c-3.67-4.34-7.112-8.878-10.46-13.469
					c-6.7-9.185-13.001-18.652-19.665-27.863c-6.443-8.906-13.294-17.588-21.22-25.232c-4.121-3.974-8.595-7.582-12.965-11.276
					c-3.332-2.817-6.647-5.654-9.937-8.52c-0.447,0.234-0.888,0.478-1.323,0.733c4.127,3.656,8.492,7.029,12.738,10.543
					c4.387,3.631,8.545,7.49,12.426,11.659c7.727,8.302,14.388,17.532,20.594,27.006c3.107,4.744,6.205,9.512,8.908,14.5
					c2.647,4.885,5.016,9.912,7.386,14.935c2.371,5.025,4.743,10.053,7.392,14.939c2.654,4.893,5.7,9.501,8.874,14.068
					c4.029,5.796,8.223,11.51,12.742,16.946l10.699-14.11C457.415,370.258,452.332,365.944,447.469,361.382z"/>
				<path style="fill:#BA7D4E;" d="M444.724,396.462c-3.47-3.599-6.771-7.361-10.202-10.998
					c-8.205-8.698-14.857-18.584-20.611-29.035c-6.271-11.391-12.322-22.906-17.954-34.627c-2.708-5.636-5.324-11.272-8.531-16.651
					c-3.108-5.212-6.563-10.22-10.32-14.985c-3.688-4.677-7.647-8.995-12.238-12.802c-3.449-2.86-7.07-5.503-10.616-8.241
					c-1.136,1.152-2.188,2.398-3.141,3.73c7.062-2.385,13.312,5.6,17.315,10.729c7.026,9.003,14.094,18.034,19.915,27.884
					c3.012,5.098,5.509,10.471,7.935,15.867c2.463,5.478,4.806,11.008,7.226,16.505c2.437,5.535,4.951,11.05,7.613,16.482
					c2.623,5.353,5.512,10.572,8.493,15.732c2.664,4.611,5.82,8.841,8.902,13.174c0.387,0.544,0.773,1.092,1.156,1.644
					l11.458,11.883l4.259-5.617C445.164,396.912,444.942,396.688,444.724,396.462z"/>
			</g>
			<path style="opacity:0.4;fill:#BA7D4E;" d="M401.094,271.326c0,0-9.481-8.433-16.047-10.311
				c-16.553-4.736-33.811,4.844-38.546,21.398c-3.45,12.061,0.705,24.489,9.613,32.182l85.01,88.159l40.562-53.492L401.094,271.326z
				 M438.053,343.649c-0.788,3.818-3.218,7.068-6.281,9.397c-3.14,2.388-6.984,3.881-10.906,4.274
				c-4.397,0.44-8.727-0.882-12.615-2.86c-4.358-2.217-8.245-5.276-11.917-8.477c-1.785-1.556-3.525-3.164-5.264-4.772
				c-1.911-1.766-3.876-3.47-5.812-5.209c-8.392-7.536-16.541-15.455-23.539-24.325c-5.943-7.533-12.631-16.318-11.816-26.458
				c0.327-4.065,1.799-8.078,3.894-11.558c4.858-8.07,13.94-10.894,22.07-5.597c2.226,1.45,4.405,2.973,6.543,4.551
				c4.362,3.22,8.556,6.665,12.615,10.258c8.279,7.326,16.02,15.251,23.395,23.481c3.296,3.679,6.532,7.409,9.546,11.324
				c3.038,3.947,5.891,8.118,7.911,12.688C437.684,334.455,438.977,339.171,438.053,343.649z"/>
			
				<ellipse transform="matrix(0.5 -0.866 0.866 0.5 -94.8781 587.4266)" style="fill:#AA7347;" cx="461.29" cy="375.881" rx="33.822" ry="26.318"/>
			
				<ellipse transform="matrix(0.5 -0.866 0.866 0.5 -95.2942 589.0525)" style="fill:#7F5632;" cx="462.487" cy="377.053" rx="30.807" ry="23.972"/>
		</g>
		<path style="fill:#404244;" d="M283.871,243.995c1.558-3.723,5.362-5.677,8.496-4.365c3.134,1.312,4.411,5.393,2.853,9.116
			c-1.558,3.723-5.362,5.677-8.496,4.365C283.59,251.799,282.313,247.717,283.871,243.995z"/>
		<path style="fill:#404244;" d="M337.467,216.258c1.558-3.723,5.362-5.677,8.496-4.365c3.134,1.312,4.411,5.393,2.853,9.116
			c-1.558,3.723-5.362,5.677-8.496,4.365C337.186,224.062,335.909,219.981,337.467,216.258z"/>
		<path style="opacity:0.43;fill:#BA7D4E;" d="M448.757,343.067c-2.996-2.443-6.789-1.353-10.278-0.986
			c-1.903,0.2-3.682,0.144-5.445-0.679c-1.794-0.837-3.34-2.11-4.912-3.292c-6.642-4.997-13.435-9.785-20.018-14.861
			c-13.148-10.14-25.777-21.095-36.369-33.939c-1.473-1.786-2.919-3.6-4.289-5.465c-1.348-1.835-2.708-3.911-3.168-6.177
			c-0.883-4.344,2.719-7.177,5.691-9.674c1.341-1.127,0.536-2.991-1.174-2.541c-3.123,0.822-6.061,2.54-8.406,4.782
			c-1.981,1.504-3.729,3.324-5.227,5.325c-1.337,1.788-2.325,3.934-3.051,6.039c-0.716,2.077-1.337,4.37-1.255,6.585
			c0.037,0.997,0.301,2.023,0.946,2.804c0.831,1.007,2.063,1.262,3.269,1.568c2.256,0.571,3.941,1.924,5.524,3.579
			c3.484,3.644,6.545,7.704,9.874,11.49c13.703,15.583,28.995,29.751,45.555,42.255c2.164,1.634,4.536,3.147,6.345,5.192
			c1.875,2.119,2.449,4.906,2.53,7.672c0.076,2.563-0.238,5.119,0.201,7.665c0.409,2.37,1.478,4.342,3.155,6.055
			c0.52,0.531,1.32-0.21,1.427-0.741c0.597-2.968,1.302-5.933,2.422-8.754c1.123-2.83,2.604-5.415,4.143-8.03
			c2.986-5.073,6.963-9.409,11.686-12.915C448.642,345.495,449.796,343.914,448.757,343.067z"/>
	</g>
	<path style="opacity:0.5;fill:#656769;" d="M340.219,46.828c-0.544,5.189-1.278,10.356-2.285,15.474
		c-2.099,10.673-5.305,21.87-11.985,30.654c-6.043,7.948-14.903,12.265-24.943,11.263c-3.233-0.322-6.324-1.153-9.422-2.1
		c-5.148-1.574-10.344-2.992-15.578-4.254c-10.452-2.52-21.054-4.419-31.727-5.71c-21.158-2.558-42.576-2.747-63.8-0.897
		c-21.387,1.863-42.577,5.793-63.286,11.426c-10.146,2.76-20.196,5.715-29.921,9.752c-9.078,3.769-18.049,8.164-25.916,14.101
		c-6.276,4.736-12.775,10.284-20.861,11.33c-5.069,0.656-10.119-0.798-13.958-4.189c-8.013-7.079-10.172-19.435-11.203-29.515
		c-0.283-2.766-0.472-5.555-0.582-8.352c-1.225,4.582-1.872,9.264-1.872,14.027c0,19.575,10.705,37.818,29.166,53.157
		c1.305-4.928,4.456-9.697,7.731-13.524c4.014-4.691,8.683-8.811,13.59-12.542c4.236-3.22,8.705-6.227,13.448-8.655
		c17.576-8.998,36.743-15.243,55.987-19.486c19.012-4.192,38.399-6.279,57.844-6.873c14.267-0.436,28.568-0.431,42.806,0.698
		c14.679,1.164,29.402,3.473,43.398,8.162c13.218,4.428,25.88,11.131,35.768,21.098c4.958,4.998,9.521,10.866,12.33,17.358
		c2.63,6.079,3.505,12.727,2.38,19.263c-0.896,5.207-2.889,10.076-5.576,14.594c37.564-18.046,61.182-44.177,61.182-73.25
		C382.934,85.877,366.889,63.915,340.219,46.828z"/>
</g>
</svg>
